<svg xmlns="http://www.w3.org/2000/svg" width="88" height="88" viewBox="0 0 88 88">
    <g fill="none" fill-rule="evenodd">
        <path fill="none" d="M0 0h88v88H0z"/>
        <path stroke="#ADB2BB" d="M56.486 13.407a37.935 37.935 0 0 0-9.12-1.106c-20.904 0-37.85 16.946-37.85 37.85C9.516 71.054 26.462 88 47.366 88c20.903 0 37.85-16.946 37.85-37.85 0-9.009-3.149-17.283-8.404-23.782"/>
        <path stroke="#ADB2BB" d="M66.255 82.957a37.619 37.619 0 0 1-9.199 3.791 5.677 5.677 0 1 1 9.2-3.791zM33.884 85.529a37.712 37.712 0 0 1-6.729-3.37 3.785 3.785 0 1 1 6.729 3.37z"/>
        <circle cx="28.441" cy="58.667" r="5.677" stroke="#ADB2BB"/>
        <circle cx="59.667" cy="50.151" r="4.731" stroke="#ADB2BB"/>
        <circle cx="68.183" cy="74.753" r="1.892" stroke="#ADB2BB"/>
        <circle cx="80.011" cy="44.946" r="1.419" stroke="#ADB2BB"/>
        <circle cx="24.656" cy="26.495" r="1.892" stroke="#ADB2BB"/>
        <circle cx="34.118" cy="42.581" r="1.892" stroke="#ADB2BB"/>
        <path stroke="#ADB2BB" d="M14.893 17.986a6.745 6.745 0 0 0 2.162.445v-1a5.4 5.4 0 0 0-2.162.555zm-3.44 4.277c-.34 1.012-.517 2.099-.517 3.175h1a10.54 10.54 0 0 0-.482-3.175zm-3.495-4.331a5.55 5.55 0 0 0-2.216-.5l.017.998a6.527 6.527 0 0 0 2.199-.498zm3.45-3.69a8.06 8.06 0 0 0 .528-2.887h-1c0 1.018.158 1.998.472 2.887zm0 0c.6 1.7 1.77 3.07 3.485 3.744-1.636.81-2.813 2.416-3.44 4.277-.61-1.923-1.794-3.548-3.495-4.331 1.652-.702 2.824-2.063 3.45-3.69zM6.86 22.826a4.01 4.01 0 0 0 1.673.43v-1a3.17 3.17 0 0 0-1.674.57zm-1.575 2.047a6.695 6.695 0 0 0-.516 2.568h1a6.93 6.93 0 0 0-.484-2.568zm-1.615-2.09a3.216 3.216 0 0 0-1.712-.527l.016.999a3.936 3.936 0 0 0 1.696-.473zm1.576-1.65a4.83 4.83 0 0 0 .523-2.208h-1c0 .795.16 1.554.477 2.209zm0 0c.35.723.889 1.318 1.613 1.693-.688.475-1.22 1.206-1.574 2.047-.353-.873-.896-1.62-1.615-2.09a3.9 3.9 0 0 0 1.576-1.65zM5.913 13.364a4.01 4.01 0 0 0 1.674.429v-1a3.17 3.17 0 0 0-1.674.57zM4.338 15.41a6.695 6.695 0 0 0-.515 2.568h1a6.93 6.93 0 0 0-.485-2.568zm-1.614-2.09a3.216 3.216 0 0 0-1.713-.527l.017 1a3.936 3.936 0 0 0 1.696-.473zM4.3 11.67a4.83 4.83 0 0 0 .523-2.209h-1c0 .795.16 1.555.477 2.21zm0 0c.35.723.889 1.317 1.613 1.693-.688.474-1.22 1.206-1.575 2.046-.353-.872-.895-1.62-1.614-2.09A3.9 3.9 0 0 0 4.3 11.67z"/>
        <g fill="#ADB2BB">
            <path fill-rule="nonzero" d="M59.18 20.124l8.029 8.03 9.373-9.374c2.344-2.343 3.563-6.95 2.689-10.157l-.12-.44-.44-.12c-3.205-.875-7.816.346-10.158 2.688l-9.373 9.373zm8.704-10.042C70.467 7.5 75.428 6.186 78.959 7.15l.962.263.263.962c.963 3.533-.349 8.491-2.933 11.075L67.209 29.492l-9.368-9.368 10.043-10.042z"/>
            <path d="M69.55 17.114l.707.707-7.36 7.36-.707-.707z"/>
            <path fill-rule="nonzero" d="M72.227 15.106a2.366 2.366 0 1 1 3.345-3.345 2.366 2.366 0 0 1-3.345 3.345zm.669-.669a1.42 1.42 0 1 0 2.007-2.007 1.42 1.42 0 0 0-2.007 2.007zM59.42 24.38l3.533 3.532 1.784-.892-4.424-4.424-.892 1.784zm6.915 2.9l-3.569 1.784-4.497-4.497 1.785-3.569 6.28 6.281z"/>
            <path d="M58.176 25.812l.67.669-2.008 2.007-.67-.67 2.008-2.006zm1.338 1.338l.67.669-2.008 2.007-.67-.669 2.008-2.007zm1.338 1.338l.67.67-2.008 2.006-.669-.669 2.007-2.007z"/>
            <path fill-rule="nonzero" d="M68.881 27.819l.335 2.342 3.143-3.143.669-3.346-4.147 4.147zm5.688-7.026l-1.338 6.691-4.684 4.684-.67-4.684 6.692-6.69zM60.315 14.974l-3.143 3.143 2.342.335 4.147-4.147-3.346.67zm6.225-2.21l-6.691 6.691-4.684-.669 4.684-4.683 6.69-1.339z"/>
        </g>
    </g>
</svg>
