<svg xmlns="http://www.w3.org/2000/svg" width="20" height="20" viewBox="0 0 20 20">
    <path fill="#FFF" fill-rule="evenodd" d="M6 10.5V8c0-2.206 1.794-4 4-4s4 1.794 4 4v2.5c0 1.699 1.476 3.299 2.354 4.101l-.003-.001C15.59 15.187 12.959 16 10 16s-5.59-.813-6.354-1.399C4.524 13.799 6 12.199 6 10.5zm4 7.5a1.994 1.994 0 0 1-1.774-1.097C8.803 16.96 9.396 17 10 17c.604 0 1.197-.04 1.774-.097A1.994 1.994 0 0 1 10 18zm-2.891-1.241A2.998 2.998 0 0 0 10 19a2.998 2.998 0 0 0 2.891-2.241c1.85-.3 3.383-.837 4.071-1.367a.996.996 0 0 0 .066-1.529C16.553 13.428 15 11.903 15 10.5V8c0-2.249-1.502-4.133-3.548-4.76.02-.079.048-.155.048-.24a1 1 0 0 0-1-1h-1a1 1 0 0 0-1 1c0 .085.028.161.048.24C6.502 3.867 5 5.751 5 8v2.5c0 1.403-1.553 2.928-2.028 3.362a1 1 0 0 0-.326.777c.013.296.156.57.392.753.688.53 2.22 1.067 4.071 1.367z"/>
</svg>
