<svg xmlns="http://www.w3.org/2000/svg" width="16" height="20" viewBox="0 0 16 20">
    <path fill="#FFED00" fill-rule="nonzero" d="M14.07 7.43v.772h1.927v-.771H14.07zM0 8.195h1.928v-.771H0v.771zM12.021 3.25l.546.545 1.363-1.363-.545-.545L12.02 3.25zm-4.02-.647a5.206 5.206 0 0 0-2.699 9.657v4.706a2.314 2.314 0 0 0 2.314 2.314h.77a2.314 2.314 0 0 0 2.314-2.314V12.26A5.206 5.206 0 0 0 8 2.602zM9.93 16.58a1.928 1.928 0 1 1-3.856 0v-.193H9.93v.193zm0-.964H6.073v-1.06H9.93v1.06zm0-3.814v1.982H6.073v-1.982a4.435 4.435 0 1 1 3.856 0zM3.982 3.244L2.618 1.881l-.545.545L3.436 3.79l.546-.546zM8.388 0h-.771v1.742h.771V0z"/>
</svg>
