<svg xmlns="http://www.w3.org/2000/svg" xmlns:xlink="http://www.w3.org/1999/xlink" width="106" height="106" viewBox="0 0 106 106">
    <defs>
        <path id="a" d="M64.685 21.2c-14.53 0-26.698 11.826-26.698 26.504 0 7 3.077 13.437 7.459 18.182L29.15 94.256a47.796 47.796 0 0 0 24.027 6.44 47.795 47.795 0 0 0 22.048-5.356c10.07-5.954 19.285-17.257 19.285-36.676 0-11.353-3.495-19.26-8.48-26.39C81.708 26.093 73.63 21.2 64.685 21.2z"/>
        <path id="b" d="M68.37 39.75a3.18 3.18 0 1 1 6.36 0 3.18 3.18 0 1 1-6.36 0z"/>
    </defs>
    <g fill="none" fill-rule="evenodd">
        <circle cx="53" cy="53" r="53" fill="#EAEBED"/>
        <use fill="#FFF" xlink:href="#a"/>
        <path fill="#EAEBED" d="M53.52 66.78C46.87 62.963 42.4 56.585 42.4 47.7h22.26L53.52 66.78z"/>
        <use fill="#EAEBED" xlink:href="#b"/>
        <path fill="#EAEBED" d="M15.449 97.603c-1.354 1.136-2.656.647-3.163.043-.508-.604-.762-1.971.591-3.107 1.354-1.136 3.804-1.611 4.311-1.007.507.604-.386 2.935-1.74 4.07z"/>
        <path fill="#FFF" d="M29.523 83.998c-.595 1.634-1.944 1.858-2.674 1.593-.73-.266-1.619-1.305-1.024-2.94.595-1.634 2.448-3.243 3.178-2.978.73.266 1.115 2.69.52 4.325zM27.61 72.587c-1.345.36-2.09-.343-2.237-.892-.147-.548.147-1.53 1.491-1.89 1.344-.36 3.23.037 3.377.586.147.549-1.287 1.835-2.632 2.196zM12.316 81.13c-.96.96-1.932.73-2.323.338-.392-.392-.622-1.364.338-2.324.96-.96 2.745-1.543 3.137-1.151.391.391-.192 2.177-1.152 3.137z"/>
    </g>
</svg>
