<?xml version="1.0" encoding="utf-8"?>
<!-- Generator: Adobe Illustrator 21.0.0, SVG Export Plug-In . SVG Version: 6.00 Build 0)  -->
<svg version="1.1" id="Layer_1" xmlns="http://www.w3.org/2000/svg" xmlns:xlink="http://www.w3.org/1999/xlink" x="0px" y="0px"
	 viewBox="0 0 80 80" style="enable-background:new 0 0 80 80;" xml:space="preserve">
<style type="text/css">
	.st0{fill:#414B55;}
	.st1{fill:#F7F8F8;}
	.st2{fill:#2A3541;}
</style>
<g>
	<g>
		<circle class="st2" cx="40" cy="40" r="40"/>
	</g>
	<g>
		<path class="st1" d="M50.1,46c1,0,1.9,0.8,1.9,1.9s-0.8,1.9-1.9,1.9c-1,0-1.9-0.8-1.9-1.9S49,46,50.1,46 M50.1,45
			c-1.6,0-2.9,1.3-2.9,2.9s1.3,2.9,2.9,2.9c1.6,0,2.9-1.3,2.9-2.9S51.6,45,50.1,45L50.1,45z"/>
		<path class="st1" d="M59.8,44.3c1,0,1.9,0.8,1.9,1.9s-0.8,1.9-1.9,1.9c-1,0-1.9-0.8-1.9-1.9S58.7,44.3,59.8,44.3 M59.8,43.3
			c-1.6,0-2.9,1.3-2.9,2.9c0,1.6,1.3,2.9,2.9,2.9c1.6,0,2.9-1.3,2.9-2.9C62.6,44.6,61.3,43.3,59.8,43.3L59.8,43.3z"/>
		<path class="st1" d="M63.1,35c1,0,1.9,0.8,1.9,1.9c0,1-0.8,1.9-1.9,1.9s-1.9-0.8-1.9-1.9C61.2,35.9,62.1,35,63.1,35 M63.1,34
			c-1.6,0-2.9,1.3-2.9,2.9c0,1.6,1.3,2.9,2.9,2.9c1.6,0,2.9-1.3,2.9-2.9C66,35.3,64.7,34,63.1,34L63.1,34z"/>
		<path class="st1" d="M16.9,38.2c1,0,1.9,0.8,1.9,1.9c0,1-0.8,1.9-1.9,1.9c-1,0-1.9-0.8-1.9-1.9C15,39,15.8,38.2,16.9,38.2
			 M16.9,37.2c-1.6,0-2.9,1.3-2.9,2.9c0,1.6,1.3,2.9,2.9,2.9s2.9-1.3,2.9-2.9C19.8,38.5,18.5,37.2,16.9,37.2L16.9,37.2z"/>
		<path class="st1" d="M24.9,32.4c1,0,1.9,0.8,1.9,1.9c0,1-0.8,1.9-1.9,1.9c-1,0-1.9-0.8-1.9-1.9C23,33.2,23.8,32.4,24.9,32.4
			 M24.9,31.4c-1.6,0-2.9,1.3-2.9,2.9c0,1.6,1.3,2.9,2.9,2.9s2.9-1.3,2.9-2.9C27.7,32.7,26.4,31.4,24.9,31.4L24.9,31.4z"/>
		<path class="st1" d="M34.6,34.1c1,0,1.9,0.8,1.9,1.9c0,1-0.8,1.9-1.9,1.9c-1,0-1.9-0.8-1.9-1.9C32.7,35,33.5,34.1,34.6,34.1
			 M34.6,33.1c-1.6,0-2.9,1.3-2.9,2.9c0,1.6,1.3,2.9,2.9,2.9c1.6,0,2.9-1.3,2.9-2.9C37.4,34.4,36.1,33.1,34.6,33.1L34.6,33.1z"/>
		<path class="st1" d="M43.1,39c1,0,1.9,0.8,1.9,1.9c0,1-0.8,1.9-1.9,1.9s-1.9-0.8-1.9-1.9C41.2,39.9,42,39,43.1,39 M43.1,38
			c-1.6,0-2.9,1.3-2.9,2.9c0,1.6,1.3,2.9,2.9,2.9s2.9-1.3,2.9-2.9C46,39.3,44.7,38,43.1,38L43.1,38z"/>
		<rect x="17.8" y="36.7" transform="matrix(0.8094 -0.5872 0.5872 0.8094 -17.8566 19.34)" class="st1" width="6.1" height="1"/>
		<rect x="29.2" y="32.1" transform="matrix(0.1738 -0.9848 0.9848 0.1738 -10.0648 58.2846)" class="st1" width="1" height="6.1"/>
		<rect x="38.3" y="35.4" transform="matrix(0.4997 -0.8662 0.8662 0.4997 -13.8916 52.8664)" class="st1" width="1" height="6.1"/>
		<rect x="46.1" y="41.4" transform="matrix(0.7065 -0.7077 0.7077 0.7065 -17.7593 45.9873)" class="st1" width="1" height="6.1"/>
		<rect x="51.9" y="46.5" transform="matrix(0.9851 -0.1721 0.1721 0.9851 -7.2748 10.1502)" class="st1" width="6.1" height="1"/>
		<rect x="58.4" y="41" transform="matrix(0.3443 -0.9389 0.9389 0.3443 1.278 84.9177)" class="st1" width="6.1" height="1"/>
	</g>
</g>
</svg>
