<?xml version="1.0" encoding="utf-8"?>
<!-- Generator: Adobe Illustrator 21.0.0, SVG Export Plug-In . SVG Version: 6.00 Build 0)  -->
<svg version="1.1" id="Layer_1" xmlns="http://www.w3.org/2000/svg" xmlns:xlink="http://www.w3.org/1999/xlink" x="0px" y="0px"
	 viewBox="0 0 40 40" style="enable-background:new 0 0 40 40;" xml:space="preserve">
<style type="text/css">
	.st0{fill:#414B55;}
	.st1{fill:#F7F8F8;}
	.st2{fill:#2A3541;}
</style>
<g>
	<g>
		<circle class="st2" cx="20" cy="20" r="20"/>
	</g>
	<g>
		<path class="st1" d="M25,23c0.5,0,0.9,0.4,0.9,0.9s-0.4,0.9-0.9,0.9c-0.5,0-0.9-0.4-0.9-0.9S24.5,23,25,23 M25,22.5
			c-0.8,0-1.4,0.6-1.4,1.4s0.6,1.4,1.4,1.4c0.8,0,1.4-0.6,1.4-1.4S25.8,22.5,25,22.5L25,22.5z"/>
		<path class="st1" d="M29.9,22.1c0.5,0,0.9,0.4,0.9,0.9S30.4,24,29.9,24c-0.5,0-0.9-0.4-0.9-0.9S29.4,22.1,29.9,22.1 M29.9,21.6
			c-0.8,0-1.4,0.6-1.4,1.4c0,0.8,0.6,1.4,1.4,1.4c0.8,0,1.4-0.6,1.4-1.4C31.3,22.3,30.7,21.6,29.9,21.6L29.9,21.6z"/>
		<path class="st1" d="M31.6,17.5c0.5,0,0.9,0.4,0.9,0.9c0,0.5-0.4,0.9-0.9,0.9s-0.9-0.4-0.9-0.9C30.6,17.9,31,17.5,31.6,17.5
			 M31.6,17c-0.8,0-1.4,0.6-1.4,1.4c0,0.8,0.6,1.4,1.4,1.4c0.8,0,1.4-0.6,1.4-1.4C33,17.7,32.4,17,31.6,17L31.6,17z"/>
		<path class="st1" d="M8.4,19.1c0.5,0,0.9,0.4,0.9,0.9C9.4,20.6,9,21,8.4,21c-0.5,0-0.9-0.4-0.9-0.9C7.5,19.5,7.9,19.1,8.4,19.1
			 M8.4,18.6C7.6,18.6,7,19.2,7,20c0,0.8,0.6,1.4,1.4,1.4s1.4-0.6,1.4-1.4C9.9,19.2,9.2,18.6,8.4,18.6L8.4,18.6z"/>
		<path class="st1" d="M12.4,16.2c0.5,0,0.9,0.4,0.9,0.9c0,0.5-0.4,0.9-0.9,0.9c-0.5,0-0.9-0.4-0.9-0.9
			C11.5,16.6,11.9,16.2,12.4,16.2 M12.4,15.7c-0.8,0-1.4,0.6-1.4,1.4c0,0.8,0.6,1.4,1.4,1.4s1.4-0.6,1.4-1.4
			C13.9,16.3,13.2,15.7,12.4,15.7L12.4,15.7z"/>
		<path class="st1" d="M17.3,17.1c0.5,0,0.9,0.4,0.9,0.9c0,0.5-0.4,0.9-0.9,0.9c-0.5,0-0.9-0.4-0.9-0.9
			C16.3,17.5,16.8,17.1,17.3,17.1 M17.3,16.6c-0.8,0-1.4,0.6-1.4,1.4c0,0.8,0.6,1.4,1.4,1.4c0.8,0,1.4-0.6,1.4-1.4
			C18.7,17.2,18.1,16.6,17.3,16.6L17.3,16.6z"/>
		<path class="st1" d="M21.5,19.5c0.5,0,0.9,0.4,0.9,0.9c0,0.5-0.4,0.9-0.9,0.9s-0.9-0.4-0.9-0.9C20.6,19.9,21,19.5,21.5,19.5
			 M21.5,19c-0.8,0-1.4,0.6-1.4,1.4c0,0.8,0.6,1.4,1.4,1.4s1.4-0.6,1.4-1.4C23,19.7,22.3,19,21.5,19L21.5,19z"/>
		<rect x="8.9" y="18.3" transform="matrix(0.8094 -0.5872 0.5872 0.8094 -8.9283 9.67)" class="st1" width="3" height="0.5"/>
		<rect x="14.6" y="16" transform="matrix(0.1738 -0.9848 0.9848 0.1738 -5.0324 29.1423)" class="st1" width="0.5" height="3"/>
		<rect x="19.2" y="17.7" transform="matrix(0.4997 -0.8662 0.8662 0.4997 -6.9458 26.4332)" class="st1" width="0.5" height="3"/>
		<rect x="23" y="20.7" transform="matrix(0.7065 -0.7077 0.7077 0.7065 -8.8797 22.9937)" class="st1" width="0.5" height="3"/>
		<rect x="25.9" y="23.3" transform="matrix(0.9851 -0.1721 0.1721 0.9851 -3.6374 5.0751)" class="st1" width="3" height="0.5"/>
		<rect x="29.2" y="20.5" transform="matrix(0.3443 -0.9389 0.9389 0.3443 0.639 42.4589)" class="st1" width="3" height="0.5"/>
	</g>
</g>
</svg>
