<?xml version="1.0" encoding="utf-8"?>
<!-- Generator: Adobe Illustrator 21.0.0, SVG Export Plug-In . SVG Version: 6.00 Build 0)  -->
<svg version="1.1" id="Layer_1" xmlns="http://www.w3.org/2000/svg" xmlns:xlink="http://www.w3.org/1999/xlink" x="0px" y="0px"
	 viewBox="0 0 380 80" style="enable-background:new 0 0 380 80;" xml:space="preserve">
<style type="text/css">
	.st0{fill:#414B55;}
	.st1{fill:#F7F8F8;}
	.st2{fill:#2A3541;}
</style>
<g>
	<g>
		<path class="st2" d="M264.4,42.1c-0.2,1.9-0.7,3.6-1.1,5.2h23.8v3.1h-21.8c4.2,6.2,12.4,10.4,24.7,12.6l-1.7,3
			c-13.5-2.8-22.3-8-26.3-15.5c-1.4,2.9-3.2,5.3-5.4,7.4c-3.8,3.5-10.6,6.4-20.3,8.4L235,63c8.8-1.7,15.1-4.1,19-7.4
			c1.7-1.5,3.2-3.2,4.4-5.3h-20.6v-3.1h22.1c0.6-1.7,1.1-3.5,1.4-5.5L264.4,42.1z M252.6,17.5c-0.9-2.3-1.9-4.3-3.1-6.1l3.4-0.6
			c1.1,2,2.1,4.2,3.1,6.7h13.1c1.1-2.2,2-4.4,2.6-6.7l3.4,0.5c-0.6,2.2-1.5,4.3-2.6,6.2h14v3H264v6.7h19.4v2.9H264v6.7h24.5v3.1
			h-52.2v-3.1h24.5v-6.7h-19.1v-2.9h19.1v-6.7h-22.4v-3H252.6z"/>
	</g>
	<g>
		<path class="st2" d="M151.4,58.5c4,0,7.2,3.2,7.2,7.2c0,4-3.2,7.2-7.2,7.2s-7.2-3.2-7.2-7.2C144.2,61.8,147.4,58.5,151.4,58.5
			 M151.4,56.1c-5.3,0-9.6,4.3-9.6,9.6c0,5.3,4.3,9.6,9.6,9.6s9.6-4.3,9.6-9.6C161,60.5,156.7,56.1,151.4,56.1L151.4,56.1z"/>
		<path class="st2" d="M188.5,52c4,0,7.2,3.2,7.2,7.2c0,4-3.2,7.2-7.2,7.2s-7.2-3.2-7.2-7.2C181.3,55.2,184.6,52,188.5,52
			 M188.5,49.6c-5.3,0-9.6,4.3-9.6,9.6s4.3,9.6,9.6,9.6c5.3,0,9.6-4.3,9.6-9.6S193.8,49.6,188.5,49.6L188.5,49.6z"/>
		<path class="st2" d="M201.4,16.6c4,0,7.2,3.2,7.2,7.2s-3.2,7.2-7.2,7.2c-4,0-7.2-3.2-7.2-7.2S197.5,16.6,201.4,16.6 M201.4,14.2
			c-5.3,0-9.6,4.3-9.6,9.6s4.3,9.6,9.6,9.6c5.3,0,9.6-4.3,9.6-9.6S206.7,14.2,201.4,14.2L201.4,14.2z"/>
		<path class="st2" d="M24.4,28.6c4,0,7.2,3.2,7.2,7.2S28.4,43,24.4,43s-7.2-3.2-7.2-7.2S20.4,28.6,24.4,28.6 M24.4,26.2
			c-5.3,0-9.6,4.3-9.6,9.6s4.3,9.6,9.6,9.6s9.6-4.3,9.6-9.6S29.7,26.2,24.4,26.2L24.4,26.2z"/>
		<path class="st2" d="M54.9,6.5c4,0,7.2,3.2,7.2,7.2s-3.2,7.2-7.2,7.2s-7.2-3.2-7.2-7.2S51,6.5,54.9,6.5 M54.9,4.1
			c-5.3,0-9.6,4.3-9.6,9.6s4.3,9.6,9.6,9.6s9.6-4.3,9.6-9.6S60.2,4.1,54.9,4.1L54.9,4.1z"/>
		<path class="st2" d="M92.1,13c4,0,7.2,3.2,7.2,7.2s-3.2,7.2-7.2,7.2s-7.2-3.2-7.2-7.2S88.1,13,92.1,13 M92.1,10.6
			c-5.3,0-9.6,4.3-9.6,9.6s4.3,9.6,9.6,9.6c5.3,0,9.6-4.3,9.6-9.6S97.4,10.6,92.1,10.6L92.1,10.6z"/>
		<path class="st2" d="M124.7,31.9c4,0,7.2,3.2,7.2,7.2s-3.2,7.2-7.2,7.2s-7.2-3.2-7.2-7.2S120.7,31.9,124.7,31.9 M124.7,29.5
			c-5.3,0-9.6,4.3-9.6,9.6s4.3,9.6,9.6,9.6c5.3,0,9.6-4.3,9.6-9.6S130,29.5,124.7,29.5L124.7,29.5z"/>
		<rect x="28" y="23.6" transform="matrix(0.8092 -0.5875 0.5875 0.8092 -6.9803 28.0343)" class="st2" width="23.3" height="2.4"/>
		
			<rect x="72.3" y="5.3" transform="matrix(0.1738 -0.9848 0.9848 0.1738 44.0283 86.3888)" class="st2" width="2.4" height="23.3"/>
		
			<rect x="107.2" y="18" transform="matrix(0.4997 -0.8662 0.8662 0.4997 28.5392 108.7301)" class="st2" width="2.4" height="23.3"/>
		
			<rect x="136.9" y="40.8" transform="matrix(0.7065 -0.7077 0.7077 0.7065 3.4158 113.0849)" class="st2" width="2.4" height="23.3"/>
		
			<rect x="158.3" y="61.3" transform="matrix(0.985 -0.1724 0.1724 0.985 -8.2232 30.2327)" class="st2" width="23.3" height="2.4"/>
		
			<rect x="183.3" y="40.3" transform="matrix(0.3442 -0.9389 0.9389 0.3442 88.9236 210.2504)" class="st2" width="23.3" height="2.4"/>
	</g>
	<g>
		<path class="st2" d="M323,35.5l-2.3,2.3c-2.5-2.8-5.8-5.8-10-8.9l2.3-2.2C317,29.6,320.3,32.5,323,35.5z M323.4,43.6
			c-2.6,7.7-5.6,15-8.8,21.7l-3.1-1.3c3.5-7,6.5-14.2,9.1-21.5L323.4,43.6z M324.8,20.8l-2.3,2.3c-2.6-2.7-6.1-5.5-10.4-8.5l2.3-2.2
			C318.5,15.2,322,18,324.8,20.8z M345.5,11.8c4.4,7.6,10.9,13.9,19.3,18.9l-1.9,2.7c-7.9-4.7-14.2-10.9-18.9-18.5
			c-5.1,7.7-11.2,13.9-18.2,18.7l-1.9-2.8c7.6-4.9,13.8-11.2,18.7-19H345.5z M357.5,65.8h-3.1v-3.5H334v3.5h-3.1V42.4h26.7V65.8z
			 M355.2,30.7v3.1h-22.4v-3.1H355.2z M354.4,59.2V45.5H334v13.6H354.4z"/>
	</g>
</g>
</svg>
