<svg xmlns="http://www.w3.org/2000/svg" xmlns:xlink="http://www.w3.org/1999/xlink" width="40" height="40" viewBox="0 0 40 40">
    <defs>
        <path id="a" d="M0 0h40v40H0"/>
    </defs>
    <g fill="none" fill-rule="evenodd">
        <path fill="#00CE7D" d="M20 8.75c6.213 0 11.25 5.037 11.25 11.25S26.213 31.25 20 31.25 8.75 26.213 8.75 20 13.787 8.75 20 8.75"/>
        <mask id="b" fill="#fff">
            <use xlink:href="#a"/>
        </mask>
        <path fill="#00CE7D" d="M36.7 8.99l-19.2 19.2-9.512-9.511 2.357-2.357 7.155 7.155L34.606 6.371c-.158-.169-.299-.348-.464-.513-7.81-7.81-20.474-7.81-28.284 0-7.81 7.81-7.81 20.474 0 28.284 7.81 7.81 20.474 7.81 28.284 0 6.836-6.836 7.689-17.39 2.559-25.153" mask="url(#b)"/>
        <path fill="#FFF" d="M0 20c0 11.046 8.954 20 20 20V0C8.954 0 0 8.954 0 20" mask="url(#b)" opacity=".16"/>
        <path fill="#FFF" d="M34.606 6.37L17.5 23.478l-7.155-7.155-2.357 2.356L17.5 28.19l19.2-19.2a20.118 20.118 0 0 0-2.094-2.62" mask="url(#b)"/>
    </g>
</svg>
